<svg width="52" height="52" viewBox="0 0 52 52" fill="none" xmlns="http://www.w3.org/2000/svg">
<path d="M28.6736 0C31.5986 0.00779982 33.0831 0.0233995 34.3649 0.0597986L34.8693 0.0779981C35.4517 0.0987976 36.0263 0.124797 36.7204 0.155996C39.4868 0.285993 41.3743 0.722783 43.0305 1.36497C44.7465 2.02535 46.192 2.91973 47.6376 4.3627C48.9596 5.6624 49.9826 7.23456 50.6353 8.96979C51.2775 10.626 51.7143 12.5135 51.8443 15.2824C51.8755 15.974 51.9015 16.5486 51.9223 17.1336L51.9379 17.638C51.9769 18.9172 51.9925 20.4017 51.9977 23.3267L52.0003 25.2662V28.6721C52.0067 30.5685 51.9867 32.4649 51.9405 34.3608L51.9249 34.8652C51.9041 35.4502 51.8781 36.0248 51.8469 36.7163C51.7169 39.4853 51.2749 41.3702 50.6353 43.029C49.9845 44.7652 48.9613 46.3377 47.6376 47.6361C46.3375 48.9577 44.7655 49.9806 43.0305 50.6338C41.3743 51.276 39.4868 51.7128 36.7204 51.8428C36.1035 51.8718 35.4865 51.8978 34.8693 51.9208L34.3649 51.9364C33.0831 51.9728 31.5986 51.991 28.6736 51.9962L26.7341 51.9988H23.3308C21.4335 52.0053 19.5362 51.9854 17.6395 51.939L17.1351 51.9234C16.5179 51.9 15.9008 51.8731 15.2839 51.8428C12.5176 51.7128 10.6301 51.276 8.97129 50.6338C7.23627 49.9822 5.66473 48.9591 4.3668 47.6361C3.04355 46.3369 2.01964 44.7646 1.36647 43.029C0.724283 41.3728 0.287493 39.4853 0.157496 36.7163C0.12853 36.0994 0.10253 35.4824 0.0794983 34.8652L0.0664989 34.3608C0.0185873 32.465 -0.00308115 30.5686 0.00150017 28.6721V23.3267C-0.00575618 21.4303 0.0133121 19.5339 0.058699 17.638L0.0768985 17.1336C0.097698 16.5486 0.123697 15.974 0.154897 15.2824C0.284894 12.5135 0.721683 10.6286 1.36387 8.96979C2.01675 7.23278 3.0427 5.66013 4.3694 4.3627C5.66701 3.04056 7.23751 2.01752 8.97129 1.36497C10.6301 0.722783 12.515 0.285993 15.2839 0.155996C15.9755 0.124797 16.5527 0.0987976 17.1351 0.0779981L17.6395 0.0623984C19.5353 0.0162047 21.4317 -0.00373013 23.3282 0.00259975L28.6736 0ZM26.0009 12.9997C22.5532 12.9997 19.2466 14.3693 16.8087 16.8072C14.3708 19.2451 13.0012 22.5517 13.0012 25.9994C13.0012 29.4471 14.3708 32.7537 16.8087 35.1916C19.2466 37.6295 22.5532 38.9991 26.0009 38.9991C29.4486 38.9991 32.7552 37.6295 35.1931 35.1916C37.631 32.7537 39.0006 29.4471 39.0006 25.9994C39.0006 22.5517 37.631 19.2451 35.1931 16.8072C32.7552 14.3693 29.4486 12.9997 26.0009 12.9997ZM26.0009 18.1996C27.0252 18.1994 28.0395 18.401 28.9859 18.7928C29.9322 19.1846 30.7922 19.759 31.5166 20.4832C32.241 21.2073 32.8157 22.0671 33.2078 23.0133C33.5999 23.9596 33.8018 24.9738 33.802 25.9981C33.8022 27.0224 33.6006 28.0367 33.2088 28.9831C32.817 29.9294 32.2426 30.7894 31.5184 31.5138C30.7943 32.2382 29.9345 32.8129 28.9883 33.205C28.042 33.5971 27.0278 33.799 26.0035 33.7992C23.9349 33.7992 21.9509 32.9774 20.4882 31.5147C19.0254 30.0519 18.2037 28.068 18.2037 25.9994C18.2037 23.9308 19.0254 21.9468 20.4882 20.4841C21.9509 19.0213 23.9349 18.1996 26.0035 18.1996M39.6532 9.09979C38.7912 9.09979 37.9646 9.44219 37.3551 10.0517C36.7457 10.6611 36.4032 11.4878 36.4032 12.3497C36.4032 13.2116 36.7457 14.0383 37.3551 14.6478C37.9646 15.2572 38.7912 15.5996 39.6532 15.5996C40.5151 15.5996 41.3417 15.2572 41.9512 14.6478C42.5607 14.0383 42.9031 13.2116 42.9031 12.3497C42.9031 11.4878 42.5607 10.6611 41.9512 10.0517C41.3417 9.44219 40.5151 9.09979 39.6532 9.09979Z" fill="white"/>
</svg>
