<svg width="52" height="52" viewBox="0 0 52 52" fill="none" xmlns="http://www.w3.org/2000/svg">
<path d="M46.2222 0C47.7546 0 49.2242 0.608728 50.3077 1.69227C51.3913 2.77582 52 4.24542 52 5.77778V46.2222C52 47.7546 51.3913 49.2242 50.3077 50.3077C49.2242 51.3913 47.7546 52 46.2222 52H5.77778C4.24542 52 2.77582 51.3913 1.69227 50.3077C0.608728 49.2242 0 47.7546 0 46.2222V5.77778C0 4.24542 0.608728 2.77582 1.69227 1.69227C2.77582 0.608728 4.24542 0 5.77778 0H46.2222ZM44.7778 44.7778V29.4667C44.7778 26.9689 43.7855 24.5735 42.0194 22.8073C40.2532 21.0411 37.8577 20.0489 35.36 20.0489C32.9044 20.0489 30.0444 21.5511 28.6578 23.8044V20.5978H20.5978V44.7778H28.6578V30.5356C28.6578 28.3111 30.4489 26.4911 32.6733 26.4911C33.746 26.4911 34.7747 26.9172 35.5332 27.6757C36.2917 28.4342 36.7178 29.4629 36.7178 30.5356V44.7778H44.7778ZM11.2089 16.0622C12.4961 16.0622 13.7305 15.5509 14.6407 14.6407C15.5509 13.7305 16.0622 12.4961 16.0622 11.2089C16.0622 8.52222 13.8956 6.32667 11.2089 6.32667C9.91404 6.32667 8.67223 6.84104 7.75664 7.75664C6.84104 8.67223 6.32667 9.91404 6.32667 11.2089C6.32667 13.8956 8.52222 16.0622 11.2089 16.0622ZM15.2244 44.7778V20.5978H7.22222V44.7778H15.2244Z" fill="white"/>
</svg>
